<mxfile host="app.diagrams.net" modified="2023-05-24T07:41:33.164Z" agent="Mozilla/5.0 (Macintosh; Intel Mac OS X 10_15_7) AppleWebKit/537.36 (KHTML, like Gecko) Chrome/113.0.0.0 Safari/537.36" etag="K-eB-VMiswQ0W4NETuQy" version="21.3.2" type="device">
  <diagram name="Page-1" id="yFuOioruvfafaDfWNkgn">
    <mxGraphModel dx="1578" dy="955" grid="1" gridSize="10" guides="1" tooltips="1" connect="1" arrows="1" fold="1" page="1" pageScale="1" pageWidth="1169" pageHeight="827" math="0" shadow="0">
      <root>
        <mxCell id="0" />
        <mxCell id="1" parent="0" />
        <mxCell id="Yju1nrnVvW0fkGOlP5AS-28" style="edgeStyle=orthogonalEdgeStyle;rounded=0;orthogonalLoop=1;jettySize=auto;html=1;exitX=1;exitY=0.5;exitDx=0;exitDy=0;entryX=0;entryY=0.5;entryDx=0;entryDy=0;" parent="1" source="Yju1nrnVvW0fkGOlP5AS-1" target="Yju1nrnVvW0fkGOlP5AS-20" edge="1">
          <mxGeometry relative="1" as="geometry" />
        </mxCell>
        <mxCell id="Yju1nrnVvW0fkGOlP5AS-30" style="rounded=0;orthogonalLoop=1;jettySize=auto;html=1;exitX=1;exitY=0.5;exitDx=0;exitDy=0;entryX=0;entryY=0.5;entryDx=0;entryDy=0;elbow=vertical;" parent="1" source="Yju1nrnVvW0fkGOlP5AS-1" target="Yju1nrnVvW0fkGOlP5AS-17" edge="1">
          <mxGeometry relative="1" as="geometry" />
        </mxCell>
        <mxCell id="Yju1nrnVvW0fkGOlP5AS-31" style="rounded=0;orthogonalLoop=1;jettySize=auto;html=1;exitX=1;exitY=0.5;exitDx=0;exitDy=0;entryX=0;entryY=0.5;entryDx=0;entryDy=0;" parent="1" source="Yju1nrnVvW0fkGOlP5AS-1" target="Yju1nrnVvW0fkGOlP5AS-23" edge="1">
          <mxGeometry relative="1" as="geometry" />
        </mxCell>
        <mxCell id="Yju1nrnVvW0fkGOlP5AS-1" value="&lt;font style=&quot;font-size: 16px;&quot;&gt;Build .wasm&lt;/font&gt;" style="rounded=1;whiteSpace=wrap;html=1;fillColor=#e1d5e7;strokeColor=#9673a6;" parent="1" vertex="1">
          <mxGeometry x="80" y="211" width="120" height="60" as="geometry" />
        </mxCell>
        <mxCell id="Yju1nrnVvW0fkGOlP5AS-2" value="&lt;font style=&quot;font-size: 16px;&quot;&gt;&lt;b&gt;Without Wizer Pre-Initialization&lt;/b&gt;&lt;/font&gt;" style="text;html=1;strokeColor=none;fillColor=none;align=center;verticalAlign=middle;whiteSpace=wrap;rounded=0;" parent="1" vertex="1">
          <mxGeometry x="430" y="40" width="270" height="50" as="geometry" />
        </mxCell>
        <mxCell id="Yju1nrnVvW0fkGOlP5AS-3" value="&lt;font style=&quot;font-size: 16px;&quot;&gt;&lt;b&gt;With Wizer Pre-Initialization&lt;/b&gt;&lt;/font&gt;" style="text;html=1;strokeColor=none;fillColor=none;align=center;verticalAlign=middle;whiteSpace=wrap;rounded=0;" parent="1" vertex="1">
          <mxGeometry x="420" y="430" width="270" height="50" as="geometry" />
        </mxCell>
        <mxCell id="Yju1nrnVvW0fkGOlP5AS-41" style="edgeStyle=orthogonalEdgeStyle;rounded=0;orthogonalLoop=1;jettySize=auto;html=1;exitX=1;exitY=0.5;exitDx=0;exitDy=0;entryX=0;entryY=0.5;entryDx=0;entryDy=0;" parent="1" source="Yju1nrnVvW0fkGOlP5AS-5" target="Yju1nrnVvW0fkGOlP5AS-6" edge="1">
          <mxGeometry relative="1" as="geometry" />
        </mxCell>
        <mxCell id="Yju1nrnVvW0fkGOlP5AS-5" value="&lt;font style=&quot;font-size: 16px;&quot;&gt;Build .wasm&lt;/font&gt;" style="rounded=1;whiteSpace=wrap;html=1;fillColor=#e1d5e7;strokeColor=#9673a6;" parent="1" vertex="1">
          <mxGeometry x="80" y="604" width="120" height="60" as="geometry" />
        </mxCell>
        <mxCell id="Yju1nrnVvW0fkGOlP5AS-42" style="edgeStyle=orthogonalEdgeStyle;rounded=0;orthogonalLoop=1;jettySize=auto;html=1;entryX=0;entryY=0.5;entryDx=0;entryDy=0;" parent="1" source="Yju1nrnVvW0fkGOlP5AS-6" target="Yju1nrnVvW0fkGOlP5AS-10" edge="1">
          <mxGeometry relative="1" as="geometry" />
        </mxCell>
        <mxCell id="Yju1nrnVvW0fkGOlP5AS-49" style="rounded=0;orthogonalLoop=1;jettySize=auto;html=1;exitX=1;exitY=0.5;exitDx=0;exitDy=0;entryX=0;entryY=0.5;entryDx=0;entryDy=0;" parent="1" source="Yju1nrnVvW0fkGOlP5AS-6" target="Yju1nrnVvW0fkGOlP5AS-7" edge="1">
          <mxGeometry relative="1" as="geometry" />
        </mxCell>
        <mxCell id="Yju1nrnVvW0fkGOlP5AS-50" style="rounded=0;orthogonalLoop=1;jettySize=auto;html=1;exitX=1;exitY=0.5;exitDx=0;exitDy=0;entryX=0;entryY=0.5;entryDx=0;entryDy=0;" parent="1" source="Yju1nrnVvW0fkGOlP5AS-6" target="Yju1nrnVvW0fkGOlP5AS-13" edge="1">
          <mxGeometry relative="1" as="geometry" />
        </mxCell>
        <mxCell id="Yju1nrnVvW0fkGOlP5AS-6" value="&lt;div&gt;&lt;font style=&quot;font-size: 16px;&quot;&gt;Pre-Initialize&lt;/font&gt;&lt;/div&gt;" style="rounded=1;whiteSpace=wrap;html=1;fillColor=#b1ddf0;strokeColor=#10739e;" parent="1" vertex="1">
          <mxGeometry x="250" y="604" width="120" height="60" as="geometry" />
        </mxCell>
        <mxCell id="Yju1nrnVvW0fkGOlP5AS-43" style="edgeStyle=orthogonalEdgeStyle;rounded=0;orthogonalLoop=1;jettySize=auto;html=1;" parent="1" source="Yju1nrnVvW0fkGOlP5AS-7" target="Yju1nrnVvW0fkGOlP5AS-8" edge="1">
          <mxGeometry relative="1" as="geometry" />
        </mxCell>
        <mxCell id="Yju1nrnVvW0fkGOlP5AS-7" value="&lt;div&gt;&lt;font style=&quot;font-size: 16px;&quot;&gt;Compile&lt;/font&gt;&lt;/div&gt;" style="rounded=1;whiteSpace=wrap;html=1;fillColor=#ffe6cc;strokeColor=#d79b00;dashed=1;strokeWidth=2;" parent="1" vertex="1">
          <mxGeometry x="430" y="514" width="120" height="60" as="geometry" />
        </mxCell>
        <mxCell id="Yju1nrnVvW0fkGOlP5AS-46" style="edgeStyle=orthogonalEdgeStyle;rounded=0;orthogonalLoop=1;jettySize=auto;html=1;exitX=1;exitY=0.5;exitDx=0;exitDy=0;" parent="1" source="Yju1nrnVvW0fkGOlP5AS-8" target="Yju1nrnVvW0fkGOlP5AS-9" edge="1">
          <mxGeometry relative="1" as="geometry" />
        </mxCell>
        <mxCell id="Yju1nrnVvW0fkGOlP5AS-8" value="&lt;div&gt;&lt;font style=&quot;font-size: 16px;&quot;&gt;Instantiate&lt;/font&gt;&lt;/div&gt;" style="rounded=1;whiteSpace=wrap;html=1;fillColor=#fad9d5;strokeColor=#ae4132;" parent="1" vertex="1">
          <mxGeometry x="620" y="514" width="120" height="60" as="geometry" />
        </mxCell>
        <mxCell id="Yju1nrnVvW0fkGOlP5AS-9" value="&lt;div&gt;&lt;font style=&quot;font-size: 16px;&quot;&gt;Interactive&lt;/font&gt;&lt;/div&gt;" style="rounded=1;whiteSpace=wrap;html=1;fillColor=#dae8fc;strokeColor=#6c8ebf;" parent="1" vertex="1">
          <mxGeometry x="800" y="514" width="120" height="60" as="geometry" />
        </mxCell>
        <mxCell id="Yju1nrnVvW0fkGOlP5AS-44" style="edgeStyle=orthogonalEdgeStyle;rounded=0;orthogonalLoop=1;jettySize=auto;html=1;exitX=1;exitY=0.5;exitDx=0;exitDy=0;entryX=0;entryY=0.5;entryDx=0;entryDy=0;" parent="1" source="Yju1nrnVvW0fkGOlP5AS-10" target="Yju1nrnVvW0fkGOlP5AS-11" edge="1">
          <mxGeometry relative="1" as="geometry" />
        </mxCell>
        <mxCell id="Yju1nrnVvW0fkGOlP5AS-10" value="&lt;font style=&quot;font-size: 16px;&quot;&gt;Compile&lt;/font&gt;" style="rounded=1;whiteSpace=wrap;html=1;fillColor=#ffe6cc;strokeColor=#d79b00;dashed=1;strokeWidth=2;" parent="1" vertex="1">
          <mxGeometry x="430" y="604" width="120" height="60" as="geometry" />
        </mxCell>
        <mxCell id="Yju1nrnVvW0fkGOlP5AS-47" style="edgeStyle=orthogonalEdgeStyle;rounded=0;orthogonalLoop=1;jettySize=auto;html=1;exitX=1;exitY=0.5;exitDx=0;exitDy=0;" parent="1" source="Yju1nrnVvW0fkGOlP5AS-11" target="Yju1nrnVvW0fkGOlP5AS-12" edge="1">
          <mxGeometry relative="1" as="geometry" />
        </mxCell>
        <mxCell id="Yju1nrnVvW0fkGOlP5AS-11" value="&lt;div&gt;&lt;font style=&quot;font-size: 16px;&quot;&gt;Instantiate&lt;/font&gt;&lt;/div&gt;" style="rounded=1;whiteSpace=wrap;html=1;fillColor=#fad9d5;strokeColor=#ae4132;" parent="1" vertex="1">
          <mxGeometry x="620" y="604" width="120" height="60" as="geometry" />
        </mxCell>
        <mxCell id="Yju1nrnVvW0fkGOlP5AS-12" value="&lt;div&gt;&lt;font style=&quot;font-size: 16px;&quot;&gt;Interactive&lt;/font&gt;&lt;/div&gt;" style="rounded=1;whiteSpace=wrap;html=1;fillColor=#dae8fc;strokeColor=#6c8ebf;" parent="1" vertex="1">
          <mxGeometry x="800" y="604" width="120" height="60" as="geometry" />
        </mxCell>
        <mxCell id="Yju1nrnVvW0fkGOlP5AS-45" style="edgeStyle=orthogonalEdgeStyle;rounded=0;orthogonalLoop=1;jettySize=auto;html=1;exitX=1;exitY=0.5;exitDx=0;exitDy=0;entryX=0;entryY=0.5;entryDx=0;entryDy=0;" parent="1" source="Yju1nrnVvW0fkGOlP5AS-13" target="Yju1nrnVvW0fkGOlP5AS-14" edge="1">
          <mxGeometry relative="1" as="geometry" />
        </mxCell>
        <mxCell id="Yju1nrnVvW0fkGOlP5AS-13" value="&lt;div&gt;&lt;font style=&quot;font-size: 16px;&quot;&gt;Compile&lt;/font&gt;&lt;/div&gt;" style="rounded=1;whiteSpace=wrap;html=1;fillColor=#ffe6cc;strokeColor=#d79b00;dashed=1;strokeWidth=2;" parent="1" vertex="1">
          <mxGeometry x="430" y="704" width="120" height="60" as="geometry" />
        </mxCell>
        <mxCell id="Yju1nrnVvW0fkGOlP5AS-48" style="edgeStyle=orthogonalEdgeStyle;rounded=0;orthogonalLoop=1;jettySize=auto;html=1;exitX=1;exitY=0.5;exitDx=0;exitDy=0;" parent="1" source="Yju1nrnVvW0fkGOlP5AS-14" target="Yju1nrnVvW0fkGOlP5AS-15" edge="1">
          <mxGeometry relative="1" as="geometry" />
        </mxCell>
        <mxCell id="Yju1nrnVvW0fkGOlP5AS-14" value="&lt;div&gt;&lt;font style=&quot;font-size: 16px;&quot;&gt;Instantiate&lt;/font&gt;&lt;/div&gt;" style="rounded=1;whiteSpace=wrap;html=1;fillColor=#fad9d5;strokeColor=#ae4132;" parent="1" vertex="1">
          <mxGeometry x="620" y="704" width="120" height="60" as="geometry" />
        </mxCell>
        <mxCell id="Yju1nrnVvW0fkGOlP5AS-15" value="&lt;div&gt;&lt;font style=&quot;font-size: 16px;&quot;&gt;Interactive&lt;/font&gt;&lt;/div&gt;" style="rounded=1;whiteSpace=wrap;html=1;fillColor=#dae8fc;strokeColor=#6c8ebf;" parent="1" vertex="1">
          <mxGeometry x="800" y="704" width="120" height="60" as="geometry" />
        </mxCell>
        <mxCell id="Yju1nrnVvW0fkGOlP5AS-40" style="edgeStyle=orthogonalEdgeStyle;rounded=0;orthogonalLoop=1;jettySize=auto;html=1;exitX=1;exitY=0.5;exitDx=0;exitDy=0;entryX=0;entryY=0.5;entryDx=0;entryDy=0;" parent="1" source="Yju1nrnVvW0fkGOlP5AS-16" target="Yju1nrnVvW0fkGOlP5AS-19" edge="1">
          <mxGeometry relative="1" as="geometry" />
        </mxCell>
        <mxCell id="Yju1nrnVvW0fkGOlP5AS-16" value="&lt;div&gt;&lt;font style=&quot;font-size: 16px;&quot;&gt;Initialize&lt;/font&gt;&lt;/div&gt;" style="rounded=1;whiteSpace=wrap;html=1;fillColor=#b1ddf0;strokeColor=#10739e;" parent="1" vertex="1">
          <mxGeometry x="620" y="110" width="120" height="60" as="geometry" />
        </mxCell>
        <mxCell id="Yju1nrnVvW0fkGOlP5AS-32" style="edgeStyle=orthogonalEdgeStyle;rounded=0;orthogonalLoop=1;jettySize=auto;html=1;exitX=1;exitY=0.5;exitDx=0;exitDy=0;" parent="1" source="Yju1nrnVvW0fkGOlP5AS-17" target="Yju1nrnVvW0fkGOlP5AS-18" edge="1">
          <mxGeometry relative="1" as="geometry" />
        </mxCell>
        <mxCell id="Yju1nrnVvW0fkGOlP5AS-17" value="&lt;div&gt;&lt;font style=&quot;font-size: 16px;&quot;&gt;Compile&lt;/font&gt;&lt;/div&gt;" style="rounded=1;whiteSpace=wrap;html=1;fillColor=#ffe6cc;strokeColor=#d79b00;dashed=1;strokeWidth=2;" parent="1" vertex="1">
          <mxGeometry x="250" y="110" width="120" height="60" as="geometry" />
        </mxCell>
        <mxCell id="Yju1nrnVvW0fkGOlP5AS-35" style="edgeStyle=orthogonalEdgeStyle;rounded=0;orthogonalLoop=1;jettySize=auto;html=1;exitX=1;exitY=0.5;exitDx=0;exitDy=0;entryX=0;entryY=0.5;entryDx=0;entryDy=0;" parent="1" source="Yju1nrnVvW0fkGOlP5AS-18" target="Yju1nrnVvW0fkGOlP5AS-16" edge="1">
          <mxGeometry relative="1" as="geometry" />
        </mxCell>
        <mxCell id="Yju1nrnVvW0fkGOlP5AS-18" value="&lt;div&gt;&lt;font style=&quot;font-size: 16px;&quot;&gt;Instantiate&lt;/font&gt;&lt;/div&gt;" style="rounded=1;whiteSpace=wrap;html=1;fillColor=#fad9d5;strokeColor=#ae4132;" parent="1" vertex="1">
          <mxGeometry x="430" y="110" width="120" height="60" as="geometry" />
        </mxCell>
        <mxCell id="Yju1nrnVvW0fkGOlP5AS-19" value="&lt;div&gt;&lt;font style=&quot;font-size: 16px;&quot;&gt;Interactive&lt;/font&gt;&lt;/div&gt;" style="rounded=1;whiteSpace=wrap;html=1;fillColor=#dae8fc;strokeColor=#6c8ebf;" parent="1" vertex="1">
          <mxGeometry x="800" y="110" width="120" height="60" as="geometry" />
        </mxCell>
        <mxCell id="Yju1nrnVvW0fkGOlP5AS-33" style="edgeStyle=orthogonalEdgeStyle;rounded=0;orthogonalLoop=1;jettySize=auto;html=1;exitX=1;exitY=0.5;exitDx=0;exitDy=0;entryX=0;entryY=0.5;entryDx=0;entryDy=0;" parent="1" source="Yju1nrnVvW0fkGOlP5AS-20" target="Yju1nrnVvW0fkGOlP5AS-21" edge="1">
          <mxGeometry relative="1" as="geometry" />
        </mxCell>
        <mxCell id="Yju1nrnVvW0fkGOlP5AS-20" value="&lt;font style=&quot;font-size: 16px;&quot;&gt;Compile&lt;/font&gt;" style="rounded=1;whiteSpace=wrap;html=1;fillColor=#ffe6cc;strokeColor=#d79b00;dashed=1;strokeWidth=2;" parent="1" vertex="1">
          <mxGeometry x="250" y="211" width="120" height="60" as="geometry" />
        </mxCell>
        <mxCell id="Yju1nrnVvW0fkGOlP5AS-36" style="edgeStyle=orthogonalEdgeStyle;rounded=0;orthogonalLoop=1;jettySize=auto;html=1;exitX=1;exitY=0.5;exitDx=0;exitDy=0;entryX=0;entryY=0.5;entryDx=0;entryDy=0;" parent="1" source="Yju1nrnVvW0fkGOlP5AS-21" target="Yju1nrnVvW0fkGOlP5AS-26" edge="1">
          <mxGeometry relative="1" as="geometry" />
        </mxCell>
        <mxCell id="Yju1nrnVvW0fkGOlP5AS-21" value="&lt;div&gt;&lt;font style=&quot;font-size: 16px;&quot;&gt;Instantiate&lt;/font&gt;&lt;/div&gt;" style="rounded=1;whiteSpace=wrap;html=1;fillColor=#fad9d5;strokeColor=#ae4132;" parent="1" vertex="1">
          <mxGeometry x="430" y="211" width="120" height="60" as="geometry" />
        </mxCell>
        <mxCell id="Yju1nrnVvW0fkGOlP5AS-22" value="&lt;div&gt;&lt;font style=&quot;font-size: 16px;&quot;&gt;Interactive&lt;/font&gt;&lt;/div&gt;" style="rounded=1;whiteSpace=wrap;html=1;fillColor=#dae8fc;strokeColor=#6c8ebf;" parent="1" vertex="1">
          <mxGeometry x="800" y="211" width="120" height="60" as="geometry" />
        </mxCell>
        <mxCell id="Yju1nrnVvW0fkGOlP5AS-34" style="edgeStyle=orthogonalEdgeStyle;rounded=0;orthogonalLoop=1;jettySize=auto;html=1;exitX=1;exitY=0.5;exitDx=0;exitDy=0;" parent="1" source="Yju1nrnVvW0fkGOlP5AS-23" target="Yju1nrnVvW0fkGOlP5AS-24" edge="1">
          <mxGeometry relative="1" as="geometry" />
        </mxCell>
        <mxCell id="Yju1nrnVvW0fkGOlP5AS-23" value="&lt;font style=&quot;font-size: 16px;&quot;&gt;Compile&lt;/font&gt;" style="rounded=1;whiteSpace=wrap;html=1;fillColor=#ffe6cc;strokeColor=#d79b00;dashed=1;strokeWidth=2;" parent="1" vertex="1">
          <mxGeometry x="250" y="316" width="120" height="60" as="geometry" />
        </mxCell>
        <mxCell id="Yju1nrnVvW0fkGOlP5AS-37" style="edgeStyle=orthogonalEdgeStyle;rounded=0;orthogonalLoop=1;jettySize=auto;html=1;exitX=1;exitY=0.5;exitDx=0;exitDy=0;entryX=0;entryY=0.5;entryDx=0;entryDy=0;" parent="1" source="Yju1nrnVvW0fkGOlP5AS-24" target="Yju1nrnVvW0fkGOlP5AS-27" edge="1">
          <mxGeometry relative="1" as="geometry" />
        </mxCell>
        <mxCell id="Yju1nrnVvW0fkGOlP5AS-24" value="&lt;div&gt;&lt;font style=&quot;font-size: 16px;&quot;&gt;Instantiate&lt;/font&gt;&lt;/div&gt;" style="rounded=1;whiteSpace=wrap;html=1;fillColor=#fad9d5;strokeColor=#ae4132;" parent="1" vertex="1">
          <mxGeometry x="430" y="316" width="120" height="60" as="geometry" />
        </mxCell>
        <mxCell id="Yju1nrnVvW0fkGOlP5AS-25" value="&lt;div&gt;&lt;font style=&quot;font-size: 16px;&quot;&gt;Interactive&lt;/font&gt;&lt;/div&gt;" style="rounded=1;whiteSpace=wrap;html=1;fillColor=#dae8fc;strokeColor=#6c8ebf;" parent="1" vertex="1">
          <mxGeometry x="800" y="316" width="120" height="60" as="geometry" />
        </mxCell>
        <mxCell id="Yju1nrnVvW0fkGOlP5AS-39" style="edgeStyle=orthogonalEdgeStyle;rounded=0;orthogonalLoop=1;jettySize=auto;html=1;exitX=1;exitY=0.5;exitDx=0;exitDy=0;entryX=0;entryY=0.5;entryDx=0;entryDy=0;" parent="1" source="Yju1nrnVvW0fkGOlP5AS-26" target="Yju1nrnVvW0fkGOlP5AS-22" edge="1">
          <mxGeometry relative="1" as="geometry" />
        </mxCell>
        <mxCell id="Yju1nrnVvW0fkGOlP5AS-26" value="&lt;div&gt;&lt;font style=&quot;font-size: 16px;&quot;&gt;Initialize&lt;/font&gt;&lt;/div&gt;" style="rounded=1;whiteSpace=wrap;html=1;fillColor=#b1ddf0;strokeColor=#10739e;" parent="1" vertex="1">
          <mxGeometry x="620" y="211" width="120" height="60" as="geometry" />
        </mxCell>
        <mxCell id="Yju1nrnVvW0fkGOlP5AS-38" style="edgeStyle=orthogonalEdgeStyle;rounded=0;orthogonalLoop=1;jettySize=auto;html=1;exitX=1;exitY=0.5;exitDx=0;exitDy=0;entryX=0;entryY=0.5;entryDx=0;entryDy=0;" parent="1" source="Yju1nrnVvW0fkGOlP5AS-27" target="Yju1nrnVvW0fkGOlP5AS-25" edge="1">
          <mxGeometry relative="1" as="geometry" />
        </mxCell>
        <mxCell id="Yju1nrnVvW0fkGOlP5AS-27" value="&lt;div&gt;&lt;font style=&quot;font-size: 16px;&quot;&gt;Initialize&lt;/font&gt;&lt;/div&gt;" style="rounded=1;whiteSpace=wrap;html=1;fillColor=#b1ddf0;strokeColor=#10739e;" parent="1" vertex="1">
          <mxGeometry x="620" y="316" width="120" height="60" as="geometry" />
        </mxCell>
        <mxCell id="Yju1nrnVvW0fkGOlP5AS-51" value="" style="endArrow=none;dashed=1;html=1;dashPattern=1 3;strokeWidth=2;rounded=0;" parent="1" edge="1">
          <mxGeometry width="50" height="50" relative="1" as="geometry">
            <mxPoint x="400" y="780" as="sourcePoint" />
            <mxPoint x="400" y="500" as="targetPoint" />
          </mxGeometry>
        </mxCell>
        <mxCell id="Yju1nrnVvW0fkGOlP5AS-52" value="" style="endArrow=none;dashed=1;html=1;dashPattern=1 3;strokeWidth=2;rounded=0;" parent="1" edge="1">
          <mxGeometry width="50" height="50" relative="1" as="geometry">
            <mxPoint x="220" y="381" as="sourcePoint" />
            <mxPoint x="220" y="101" as="targetPoint" />
          </mxGeometry>
        </mxCell>
        <mxCell id="Yju1nrnVvW0fkGOlP5AS-53" value="&lt;font style=&quot;font-size: 16px;&quot;&gt;User time&lt;/font&gt;" style="text;html=1;strokeColor=none;fillColor=none;align=center;verticalAlign=middle;whiteSpace=wrap;rounded=0;" parent="1" vertex="1">
          <mxGeometry x="220" y="70" width="110" height="30" as="geometry" />
        </mxCell>
        <mxCell id="Yju1nrnVvW0fkGOlP5AS-54" value="&lt;font style=&quot;font-size: 16px;&quot;&gt;User time&lt;/font&gt;" style="text;html=1;strokeColor=none;fillColor=none;align=center;verticalAlign=middle;whiteSpace=wrap;rounded=0;" parent="1" vertex="1">
          <mxGeometry x="410" y="470" width="110" height="30" as="geometry" />
        </mxCell>
        <mxCell id="Yju1nrnVvW0fkGOlP5AS-55" value="&lt;font style=&quot;font-size: 16px;&quot;&gt;Developer time&lt;/font&gt;" style="text;html=1;strokeColor=none;fillColor=none;align=center;verticalAlign=middle;whiteSpace=wrap;rounded=0;" parent="1" vertex="1">
          <mxGeometry x="90" y="70" width="110" height="30" as="geometry" />
        </mxCell>
        <mxCell id="Yju1nrnVvW0fkGOlP5AS-56" value="&lt;font style=&quot;font-size: 16px;&quot;&gt;Developer time&lt;/font&gt;" style="text;html=1;strokeColor=none;fillColor=none;align=center;verticalAlign=middle;whiteSpace=wrap;rounded=0;" parent="1" vertex="1">
          <mxGeometry x="250" y="470" width="110" height="30" as="geometry" />
        </mxCell>
        <mxCell id="Yju1nrnVvW0fkGOlP5AS-58" value="" style="endArrow=classic;startArrow=classic;html=1;rounded=0;" parent="1" edge="1">
          <mxGeometry width="50" height="50" relative="1" as="geometry">
            <mxPoint x="240" y="400" as="sourcePoint" />
            <mxPoint x="740" y="400" as="targetPoint" />
          </mxGeometry>
        </mxCell>
        <mxCell id="Yju1nrnVvW0fkGOlP5AS-59" value="&lt;font style=&quot;font-size: 16px;&quot;&gt;Critical path&lt;/font&gt;" style="edgeLabel;html=1;align=center;verticalAlign=middle;resizable=0;points=[];" parent="Yju1nrnVvW0fkGOlP5AS-58" vertex="1" connectable="0">
          <mxGeometry x="-0.4316" y="2" relative="1" as="geometry">
            <mxPoint x="18" y="2" as="offset" />
          </mxGeometry>
        </mxCell>
        <mxCell id="Yju1nrnVvW0fkGOlP5AS-60" value="" style="endArrow=classic;startArrow=classic;html=1;rounded=0;" parent="1" edge="1">
          <mxGeometry width="50" height="50" relative="1" as="geometry">
            <mxPoint x="410" y="790" as="sourcePoint" />
            <mxPoint x="740" y="790" as="targetPoint" />
          </mxGeometry>
        </mxCell>
        <mxCell id="Yju1nrnVvW0fkGOlP5AS-61" value="&lt;font style=&quot;font-size: 16px;&quot;&gt;Critical path&lt;/font&gt;" style="edgeLabel;html=1;align=center;verticalAlign=middle;resizable=0;points=[];" parent="Yju1nrnVvW0fkGOlP5AS-60" vertex="1" connectable="0">
          <mxGeometry x="-0.4316" y="2" relative="1" as="geometry">
            <mxPoint x="18" y="2" as="offset" />
          </mxGeometry>
        </mxCell>
      </root>
    </mxGraphModel>
  </diagram>
</mxfile>
